<?xml version="1.0" standalone="no"?>
<!DOCTYPE svg PUBLIC "-//W3C//DTD SVG 20010904//EN"
 "http://www.w3.org/TR/2001/REC-SVG-20010904/DTD/svg10.dtd">
<svg version="1.0" xmlns="http://www.w3.org/2000/svg"
 width="410.000000pt" height="410.000000pt" viewBox="0 0 410.000000 410.000000"
 preserveAspectRatio="xMidYMid meet">

<g transform="translate(0.000000,410.000000) scale(0.100000,-0.100000)"
fill="#000000" stroke="none">
<path d="M0 2050 l0 -2050 2050 0 2050 0 0 2050 0 2050 -2050 0 -2050 0 0
-2050z m2168 1013 l-3 -578 -105 0 -105 0 -3 468 -2 467 -40 0 -40 0 0 110 0
110 150 0 150 0 -2 -577z m-630 70 l3 -113 -46 0 -45 0 0 -265 0 -265 -110 0
-110 0 0 265 0 265 -39 0 c-35 0 -40 3 -45 28 -7 30 -5 182 1 195 3 4 91 6
196 5 l192 -3 3 -112z m380 48 c10 -1 12 -27 10 -108 -3 -107 -3 -108 -28
-111 l-25 -3 2 -222 c1 -122 2 -234 2 -249 l1 -28 550 0 550 0 0 250 0 250
-22 1 c-13 0 -191 1 -395 1 l-373 1 0 107 c0 78 4 109 13 112 10 3 969 2 988
-1 3 -1 5 -225 5 -498 l-1 -498 -107 -3 -108 -3 0 35 0 34 -543 0 c-299 0
-547 -2 -553 -6 -5 -4 -9 -18 -9 -32 0 -24 0 -24 -105 -25 l-105 0 -3 497 -2
497 22 3 c20 3 200 2 236 -1z m-1150 -310 l-3 -106 -37 -3 c-27 -2 -38 -8 -39
-20 -5 -76 -2 -556 3 -565 5 -9 84 -12 272 -13 l265 -1 3 31 3 31 105 0 105 0
5 -31 5 -31 247 1 248 1 0 30 0 30 110 1 110 0 0 -33 0 -33 740 0 740 0 0 -59
c0 -35 -5 -61 -11 -63 -8 -3 -12 -114 -13 -388 l-1 -385 -535 0 c-294 0 -575
1 -623 3 l-88 3 3 107 3 106 513 0 512 -1 -2 231 -3 231 -627 1 -628 0 0 -32
c0 -38 -5 -40 -125 -39 l-90 1 -3 32 -3 32 -742 2 -742 3 -3 44 c-2 30 1 47
10 52 11 6 13 83 12 421 -1 227 0 436 3 464 l5 51 149 0 150 0 -3 -106z m870
-518 l-3 -108 -245 -5 c-208 -4 -245 -7 -246 -20 -1 -8 -2 -20 -3 -26 -1 -6
-40 -10 -106 -10 -124 0 -115 -14 -113 159 l2 117 358 0 359 0 -3 -107z m824
-148 c-4 -25 -5 -25 -108 -25 l-104 0 0 25 0 25 109 0 108 0 -5 -25z m-1342
-315 l0 -36 548 0 547 1 3 38 3 37 110 0 110 0 -3 -147 -3 -148 -25 -1 c-14
-1 -31 -2 -37 -3 -10 -1 -13 -57 -13 -246 l0 -245 40 0 40 0 0 -104 c0 -91 -2
-104 -17 -107 -10 -3 -94 -4 -188 -4 l-170 1 -3 107 -3 107 35 0 34 0 5 113
c7 151 6 377 -2 378 -3 0 -232 1 -508 2 -328 1 -504 -1 -506 -8 -2 -9 -1 -319
2 -437 1 -48 1 -48 36 -48 l35 0 0 -110 0 -110 -145 0 -145 0 0 498 c0 274 2
501 5 504 3 2 52 4 110 4 l105 1 0 -37z m728 13 c4 -25 10 -24 -117 -27 -52
-1 -79 3 -88 13 -8 7 -11 17 -6 22 8 8 73 14 158 14 44 0 50 -3 53 -22z m1323
-28 c0 -30 1 -82 1 -115 0 -33 -1 -74 -1 -90 l-1 -31 -142 3 -143 3 -3 103
c-1 56 1 102 5 103 4 1 22 2 38 3 28 1 30 3 27 39 l-4 37 111 0 111 0 1 -55z
m-1076 -260 c19 -4 20 -13 22 -187 2 -101 0 -202 -3 -225 -5 -39 -8 -43 -33
-43 l-28 0 -6 -97 c-4 -54 -3 -111 1 -128 7 -26 14 -30 43 -31 19 -1 40 -2 47
-3 9 -1 12 -30 12 -111 l0 -110 43 0 43 0 -2 -62 c-1 -35 -3 -84 -3 -110 l-1
-48 -150 0 -150 0 0 573 c0 316 2 576 5 579 6 6 132 8 160 3z"/>
</g>
</svg>